<svg width="201" height="52" viewBox="0 0 201 52" fill="none" xmlns="http://www.w3.org/2000/svg">
<g clip-path="url(#clip0_131_2334)">
<path d="M1.79883 40.3V39H2.69883V40.3H1.79883ZM1.79883 48.8V41.8H2.69883V48.8H1.79883Z" fill="#0A2553"/>
<path d="M10.4996 48.8002H9.59961V44.9002C9.59961 44.1002 9.49961 43.5002 9.19961 43.1002C8.99961 42.7002 8.59961 42.5002 8.09961 42.5002C7.79961 42.5002 7.59961 42.5002 7.29961 42.6002C6.99961 42.7002 6.79961 42.8002 6.49961 43.0002C6.29961 43.2002 6.09961 43.4002 5.89961 43.6002C5.69961 43.8002 5.59961 44.1002 5.49961 44.4002V48.7002H4.59961V41.7002H5.39961V43.3002C5.49961 43.0002 5.69961 42.8002 5.89961 42.6002C6.09961 42.4002 6.29961 42.2002 6.59961 42.1002C6.89961 41.9002 7.09961 41.8002 7.39961 41.8002C7.69961 41.7002 7.99961 41.7002 8.29961 41.7002C8.69961 41.7002 8.99961 41.8002 9.29961 41.9002C9.59961 42.0002 9.79961 42.2002 9.89961 42.5002C9.99961 42.8002 10.1996 43.1002 10.1996 43.5002C10.2996 43.9002 10.2996 44.3002 10.2996 44.7002V48.8002H10.4996Z" fill="#0A2553"/>
<path d="M15.298 48.9C14.798 48.9 14.398 48.8 13.998 48.6C13.598 48.4 13.198 48.1 12.898 47.8C12.598 47.5 12.398 47.1 12.198 46.7C11.998 46.3 11.998 45.8 11.998 45.3C11.998 44.8 12.098 44.3 12.198 43.9C12.298 43.5 12.598 43.1 12.898 42.7C13.198 42.4 13.498 42.1 13.898 41.9C14.298 41.7 14.698 41.6 15.198 41.6C15.798 41.6 16.298 41.8 16.798 42.1C17.298 42.4 17.598 42.8 17.898 43.2V39H18.798V47.6C18.798 47.8 18.898 48 19.098 48V48.8C18.898 48.8 18.798 48.8 18.698 48.8C18.498 48.8 18.298 48.7 18.098 48.6C17.898 48.5 17.898 48.3 17.898 48.1V47.4C17.598 47.9 17.198 48.2 16.798 48.5C16.298 48.8 15.798 48.9 15.298 48.9ZM15.498 48.1C15.698 48.1 15.998 48.1 16.198 48C16.498 47.9 16.698 47.8 16.898 47.6C17.098 47.4 17.298 47.3 17.498 47.1C17.698 46.9 17.798 46.7 17.798 46.4V44.2C17.698 44 17.598 43.7 17.398 43.5C17.198 43.3 16.998 43.1 16.798 42.9C16.598 42.7 16.298 42.6 16.098 42.5C15.898 42.4 15.598 42.4 15.398 42.4C14.998 42.4 14.698 42.5 14.398 42.6C14.098 42.7 13.798 43 13.598 43.2C13.398 43.5 13.198 43.8 13.098 44.1C12.998 44.4 12.898 44.8 12.898 45.1C12.898 45.5 12.998 45.8 13.098 46.2C13.198 46.6 13.398 46.8 13.698 47.1C13.898 47.4 14.198 47.6 14.498 47.7C14.798 48 15.198 48.1 15.498 48.1Z" fill="#0A2553"/>
<path d="M23.8984 48.9006C23.3984 48.9006 22.8984 48.8006 22.4984 48.6006C22.0984 48.4006 21.6984 48.1006 21.3984 47.8006C21.0984 47.5006 20.7984 47.1006 20.6984 46.6006C20.4984 46.2006 20.3984 45.7006 20.3984 45.2006C20.3984 44.7006 20.4984 44.2006 20.6984 43.8006C20.8984 43.4006 21.0984 43.0006 21.3984 42.7006C21.6984 42.4006 22.0984 42.1006 22.4984 41.9006C22.8984 41.7006 23.3984 41.6006 23.8984 41.6006C24.3984 41.6006 24.8984 41.7006 25.2984 41.9006C25.6984 42.1006 26.0984 42.4006 26.3984 42.7006C26.6984 43.0006 26.8984 43.4006 27.0984 43.8006C27.2984 44.2006 27.3984 44.7006 27.3984 45.2006C27.3984 45.3006 27.3984 45.3006 27.3984 45.4006C27.3984 45.5006 27.3984 45.5006 27.3984 45.5006H21.3984C21.3984 45.9006 21.4984 46.2006 21.6984 46.5006C21.7984 46.8006 21.9984 47.1006 22.2984 47.3006C22.4984 47.5006 22.7984 47.7006 23.0984 47.8006C23.3984 47.9006 23.6984 48.0006 24.0984 48.0006C24.2984 48.0006 24.5984 48.0006 24.7984 47.9006C24.9984 47.8006 25.1984 47.8006 25.3984 47.6006C25.5984 47.4006 25.7984 47.4006 25.8984 47.2006C25.9984 47.0006 26.1984 46.9006 26.1984 46.7006L26.9984 46.9006C26.8984 47.2006 26.6984 47.4006 26.4984 47.6006C26.2984 47.8006 26.0984 48.0006 25.7984 48.1006C25.4984 48.3006 25.2984 48.4006 24.8984 48.5006C24.4984 48.6006 24.1984 48.9006 23.8984 48.9006ZM26.3984 44.9006C26.3984 44.5006 26.2984 44.2006 26.0984 43.9006C25.9984 43.6006 25.7984 43.3006 25.4984 43.1006C25.2984 42.9006 24.9984 42.7006 24.6984 42.6006C24.3984 42.5006 24.0984 42.4006 23.6984 42.4006C23.2984 42.4006 22.9984 42.5006 22.6984 42.6006C22.3984 42.7006 22.0984 42.9006 21.8984 43.1006C21.6984 43.3006 21.4984 43.6006 21.2984 43.9006C21.1984 44.2006 21.0984 44.6006 21.0984 44.9006H26.3984Z" fill="#0A2553"/>
<path d="M32.2992 48.9006C31.6992 48.9006 31.1992 48.7006 30.6992 48.4006C30.1992 48.1006 29.8992 47.7006 29.5992 47.3006V51.6006H28.6992V41.7006H29.4992V43.1006C29.7992 42.7006 30.1992 42.3006 30.5992 42.0006C31.0992 41.7006 31.5992 41.6006 32.0992 41.6006C32.5992 41.6006 32.9992 41.7006 33.3992 41.9006C33.7992 42.1006 34.1992 42.4006 34.4992 42.7006C34.7992 43.0006 34.9992 43.4006 35.1992 43.9006C35.3992 44.3006 35.3992 44.8006 35.3992 45.3006C35.3992 45.8006 35.2992 46.3006 35.1992 46.7006C34.9992 47.1006 34.7992 47.5006 34.4992 47.9006C34.1992 48.2006 33.8992 48.5006 33.4992 48.7006C33.1992 48.8006 32.6992 48.9006 32.2992 48.9006ZM31.9992 48.1006C32.3992 48.1006 32.6992 48.0006 32.9992 47.9006C33.2992 47.7006 33.5992 47.5006 33.7992 47.3006C33.9992 47.0006 34.1992 46.7006 34.2992 46.4006C34.3992 46.1006 34.4992 45.7006 34.4992 45.4006C34.4992 45.0006 34.3992 44.7006 34.2992 44.3006C34.1992 44.0006 33.9992 43.7006 33.6992 43.4006C33.3992 43.1006 33.1992 42.9006 32.8992 42.8006C32.5992 42.7006 32.1992 42.6006 31.8992 42.6006C31.6992 42.6006 31.3992 42.6006 31.1992 42.7006C30.8992 42.8006 30.6992 42.9006 30.4992 43.1006C30.2992 43.3006 30.0992 43.4006 29.8992 43.7006C29.6992 43.9006 29.5992 44.1006 29.5992 44.4006V46.5006C29.6992 46.8006 29.7992 47.0006 29.9992 47.2006C30.1992 47.4006 30.3992 47.6006 30.5992 47.8006C30.7992 48.0006 30.9992 48.1006 31.2992 48.2006C31.4992 48.1006 31.7992 48.1006 31.9992 48.1006Z" fill="#0A2553"/>
<path d="M39.998 48.9006C39.498 48.9006 38.998 48.8006 38.598 48.6006C38.198 48.4006 37.798 48.1006 37.498 47.8006C37.198 47.5006 36.898 47.1006 36.798 46.6006C36.598 46.2006 36.498 45.7006 36.498 45.2006C36.498 44.7006 36.598 44.2006 36.798 43.8006C36.998 43.4006 37.198 43.0006 37.498 42.7006C37.798 42.4006 38.198 42.1006 38.598 41.9006C38.998 41.7006 39.498 41.6006 39.998 41.6006C40.498 41.6006 40.998 41.7006 41.398 41.9006C41.798 42.1006 42.198 42.4006 42.498 42.7006C42.798 43.0006 42.998 43.4006 43.198 43.8006C43.398 44.2006 43.498 44.7006 43.498 45.2006C43.498 45.3006 43.498 45.3006 43.498 45.4006C43.498 45.5006 43.498 45.5006 43.498 45.5006H37.498C37.498 45.9006 37.598 46.2006 37.798 46.5006C37.898 46.8006 38.098 47.1006 38.398 47.3006C38.598 47.5006 38.898 47.7006 39.198 47.8006C39.498 47.9006 39.798 48.0006 40.198 48.0006C40.398 48.0006 40.698 48.0006 40.898 47.9006C41.098 47.8006 41.298 47.8006 41.498 47.6006C41.698 47.4006 41.898 47.4006 41.998 47.2006C42.098 47.0006 42.298 46.9006 42.298 46.7006L43.098 46.9006C42.998 47.2006 42.798 47.4006 42.598 47.6006C42.398 47.8006 42.198 48.0006 41.898 48.1006C41.598 48.3006 41.398 48.4006 40.998 48.5006C40.598 48.6006 40.298 48.9006 39.998 48.9006ZM42.598 44.9006C42.598 44.5006 42.498 44.2006 42.298 43.9006C42.198 43.6006 41.998 43.3006 41.698 43.1006C41.498 42.9006 41.198 42.7006 40.898 42.6006C40.598 42.5006 40.298 42.4006 39.898 42.4006C39.498 42.4006 39.198 42.5006 38.898 42.6006C38.598 42.7006 38.298 42.9006 38.098 43.1006C37.898 43.3006 37.698 43.6006 37.498 43.9006C37.398 44.2006 37.298 44.6006 37.298 44.9006H42.598Z" fill="#0A2553"/>
<path d="M50.6988 48.8002H49.7988V44.9002C49.7988 44.1002 49.6988 43.5002 49.3988 43.1002C49.1988 42.7002 48.7988 42.5002 48.2988 42.5002C47.9988 42.5002 47.7988 42.5002 47.4988 42.6002C47.1988 42.7002 46.9988 42.8002 46.6988 43.0002C46.4988 43.2002 46.2988 43.4002 46.0988 43.6002C45.8988 43.8002 45.7988 44.1002 45.6988 44.4002V48.7002H44.7988V41.7002H45.5988V43.3002C45.6988 43.0002 45.8988 42.8002 46.0988 42.6002C46.2988 42.4002 46.4988 42.2002 46.7988 42.1002C47.0988 41.9002 47.2988 41.8002 47.5988 41.8002C47.8988 41.7002 48.1988 41.7002 48.4988 41.7002C48.8988 41.7002 49.1988 41.8002 49.4988 41.9002C49.7988 42.0002 49.9988 42.2002 50.0988 42.5002C50.1988 42.8002 50.3988 43.1002 50.3988 43.5002C50.4988 43.9002 50.4988 44.3002 50.4988 44.7002V48.8002H50.6988Z" fill="#0A2553"/>
<path d="M55.4992 48.9C54.9992 48.9 54.5992 48.8 54.1992 48.6C53.7992 48.4 53.3992 48.1 53.0992 47.8C52.7992 47.5 52.5992 47.1 52.3992 46.7C52.1992 46.3 52.1992 45.8 52.1992 45.3C52.1992 44.8 52.2992 44.3 52.3992 43.9C52.4992 43.5 52.7992 43.1 53.0992 42.7C53.3992 42.4 53.6992 42.1 54.0992 41.9C54.4992 41.7 54.8992 41.6 55.3992 41.6C55.9992 41.6 56.4992 41.8 56.9992 42.1C57.4992 42.4 57.7992 42.8 58.0992 43.2V39H58.9992V47.6C58.9992 47.8 59.0992 48 59.2992 48V48.8C59.0992 48.8 58.9992 48.8 58.8992 48.8C58.6992 48.8 58.4992 48.7 58.2992 48.6C58.0992 48.5 58.0992 48.3 58.0992 48.1V47.4C57.7992 47.9 57.3992 48.2 56.9992 48.5C56.4992 48.8 55.9992 48.9 55.4992 48.9ZM55.6992 48.1C55.8992 48.1 56.1992 48.1 56.3992 48C56.6992 47.9 56.8992 47.8 57.0992 47.6C57.2992 47.4 57.4992 47.3 57.6992 47.1C57.8992 46.9 57.9992 46.7 57.9992 46.4V44.2C57.8992 44 57.7992 43.7 57.5992 43.5C57.3992 43.3 57.1992 43.1 56.9992 42.9C56.7992 42.7 56.4992 42.6 56.2992 42.5C56.0992 42.4 55.7992 42.4 55.5992 42.4C55.1992 42.4 54.8992 42.5 54.5992 42.6C54.2992 42.7 53.9992 43 53.7992 43.2C53.5992 43.5 53.3992 43.8 53.2992 44.1C53.1992 44.4 53.0992 44.8 53.0992 45.1C53.0992 45.5 53.1992 45.8 53.2992 46.2C53.3992 46.6 53.5992 46.8 53.8992 47.1C54.0992 47.4 54.3992 47.6 54.6992 47.7C54.9992 48 55.2992 48.1 55.6992 48.1Z" fill="#0A2553"/>
<path d="M63.998 48.9006C63.498 48.9006 62.998 48.8006 62.598 48.6006C62.198 48.4006 61.798 48.1006 61.498 47.8006C61.198 47.5006 60.898 47.1006 60.798 46.6006C60.598 46.2006 60.498 45.7006 60.498 45.2006C60.498 44.7006 60.598 44.2006 60.798 43.8006C60.998 43.4006 61.198 43.0006 61.498 42.7006C61.798 42.4006 62.198 42.1006 62.598 41.9006C62.998 41.7006 63.498 41.6006 63.998 41.6006C64.498 41.6006 64.998 41.7006 65.398 41.9006C65.798 42.1006 66.198 42.4006 66.498 42.7006C66.798 43.0006 66.998 43.4006 67.198 43.8006C67.398 44.2006 67.498 44.7006 67.498 45.2006C67.498 45.3006 67.498 45.3006 67.498 45.4006C67.498 45.5006 67.498 45.5006 67.498 45.5006H61.498C61.498 45.9006 61.598 46.2006 61.798 46.5006C61.898 46.8006 62.098 47.1006 62.398 47.3006C62.598 47.5006 62.898 47.7006 63.198 47.8006C63.498 47.9006 63.798 48.0006 64.198 48.0006C64.398 48.0006 64.698 48.0006 64.898 47.9006C65.098 47.8006 65.298 47.8006 65.498 47.6006C65.698 47.4006 65.898 47.4006 65.998 47.2006C66.098 47.0006 66.298 46.9006 66.298 46.7006L67.098 46.9006C66.998 47.2006 66.798 47.4006 66.598 47.6006C66.398 47.8006 66.198 48.0006 65.898 48.1006C65.598 48.3006 65.398 48.4006 64.998 48.5006C64.598 48.6006 64.398 48.9006 63.998 48.9006ZM66.598 44.9006C66.598 44.5006 66.498 44.2006 66.298 43.9006C66.1981 43.6006 65.998 43.3006 65.698 43.1006C65.498 42.9006 65.198 42.7006 64.898 42.6006C64.598 42.5006 64.298 42.4006 63.898 42.4006C63.498 42.4006 63.198 42.5006 62.898 42.6006C62.598 42.7006 62.298 42.9006 62.098 43.1006C61.898 43.3006 61.698 43.6006 61.498 43.9006C61.398 44.2006 61.298 44.6006 61.298 44.9006H66.598Z" fill="#0A2553"/>
<path d="M74.6988 48.8002H73.7988V44.9002C73.7988 44.1002 73.6988 43.5002 73.3988 43.1002C73.1988 42.7002 72.7988 42.5002 72.2988 42.5002C71.9988 42.5002 71.7988 42.5002 71.4988 42.6002C71.1988 42.7002 70.9988 42.8002 70.6988 43.0002C70.4988 43.2002 70.2988 43.4002 70.0988 43.6002C69.8988 43.8002 69.7988 44.1002 69.6988 44.4002V48.7002H68.7988V41.7002H69.5988V43.3002C69.6988 43.0002 69.8988 42.8002 70.0988 42.6002C70.2988 42.4002 70.4988 42.2002 70.7988 42.1002C71.0988 41.9002 71.2988 41.8002 71.5988 41.8002C71.8988 41.7002 72.1988 41.7002 72.4988 41.7002C72.8988 41.7002 73.1988 41.8002 73.4988 41.9002C73.7988 42.0002 73.9988 42.2002 74.0988 42.5002C74.1988 42.8002 74.3988 43.1002 74.3988 43.5002C74.4988 43.9002 74.4988 44.3002 74.4988 44.7002V48.8002H74.6988Z" fill="#0A2553"/>
<path d="M79.9984 48.4004C79.8984 48.4004 79.8984 48.5004 79.7984 48.5004C79.6984 48.5004 79.5984 48.6004 79.3984 48.6004C79.1984 48.6004 79.0984 48.7004 78.8984 48.7004C78.6984 48.7004 78.5984 48.8004 78.3984 48.8004C78.1984 48.8004 77.9984 48.8004 77.7984 48.7004C77.5984 48.6004 77.4984 48.6004 77.2984 48.5004C77.1984 48.4004 77.0984 48.2004 76.9984 48.1004C76.8984 47.9004 76.8984 47.7004 76.8984 47.5004V42.5004H75.8984V41.8004H76.8984V39.4004H77.7984V41.8004H79.3984V42.5004H77.7984V47.3004C77.7984 47.6004 77.8984 47.7004 78.0984 47.9004C78.2984 48.1004 78.4984 48.1004 78.6984 48.1004C78.9984 48.1004 79.1984 48.1004 79.3984 48.0004C79.5984 47.9004 79.6984 47.9004 79.7984 47.8004L79.9984 48.4004Z" fill="#0A2553"/>
<path d="M84.5996 50.5004V38.4004H85.3996V50.6004H84.5996V50.5004Z" fill="#0A2553"/>
<path d="M92.7988 48.9006C92.3988 48.9006 92.0988 48.8006 91.7988 48.7006C91.4988 48.6006 91.2988 48.4006 90.9988 48.2006C90.6988 48.0006 90.5988 47.8006 90.4988 47.5006C90.3988 47.2006 90.2988 47.0006 90.2988 46.7006C90.2988 46.4006 90.3988 46.1006 90.4988 45.8006C90.5988 45.5006 90.7988 45.3006 91.0988 45.1006C91.3988 44.9006 91.6988 44.8006 91.9988 44.7006C92.3988 44.6006 92.7988 44.5006 93.1988 44.5006C93.4988 44.5006 93.8988 44.5006 94.2988 44.6006C94.6988 44.7006 94.9988 44.8006 95.2988 44.9006V44.3006C95.2988 43.7006 95.0988 43.2006 94.7988 42.8006C94.3988 42.4006 93.9988 42.3006 93.3988 42.3006C92.9988 42.3006 92.5988 42.4006 92.2988 42.5006C91.8988 42.6006 91.4988 42.8006 91.1988 43.1006L90.8988 42.5006C91.3988 42.2006 91.7988 42.0006 92.1988 41.8006C92.5988 41.6006 93.0988 41.6006 93.4988 41.6006C94.3988 41.6006 94.9988 41.8006 95.4988 42.3006C95.9988 42.8006 96.2988 43.5006 96.2988 44.3006V47.5006C96.2988 47.7006 96.3988 47.9006 96.5988 47.9006V48.7006C96.4988 48.7006 96.4988 48.7006 96.3988 48.7006C96.2988 48.7006 96.2988 48.7006 96.1988 48.7006C95.9988 48.7006 95.8988 48.6006 95.6988 48.5006C95.5988 48.4006 95.4988 48.2006 95.4988 48.0006V47.4006C95.1988 47.8006 94.7988 48.1006 94.2988 48.4006C93.7988 48.8006 93.2988 48.9006 92.7988 48.9006ZM92.9988 48.2006C93.3988 48.2006 93.7988 48.1006 94.1988 47.9006C94.5988 47.7006 94.8988 47.5006 95.0988 47.2006C95.1988 47.1006 95.1988 47.0006 95.2988 46.9006C95.2988 46.8006 95.3988 46.7006 95.3988 46.6006V45.5006C95.0988 45.4006 94.7988 45.3006 94.3988 45.2006C94.0988 45.1006 93.6988 45.1006 93.3988 45.1006C92.6988 45.1006 92.1988 45.2006 91.7988 45.5006C91.3988 45.8006 91.1988 46.1006 91.1988 46.6006C91.1988 46.8006 91.1988 47.0006 91.2988 47.2006C91.3988 47.4006 91.4988 47.5006 91.5988 47.7006C91.6988 47.8006 91.8988 48.0006 92.0988 48.0006C92.2988 48.0006 92.6988 48.2006 92.9988 48.2006Z" fill="#0A2553"/>
<path d="M97.7988 45.2006C97.7988 44.7006 97.8988 44.2006 98.0988 43.8006C98.2988 43.4006 98.4988 43.0006 98.7988 42.7006C99.0988 42.4006 99.4988 42.1006 99.8988 41.9006C100.299 41.7006 100.799 41.6006 101.299 41.6006C101.999 41.6006 102.499 41.8006 102.999 42.1006C103.499 42.4006 103.899 42.8006 104.099 43.3006L103.199 43.6006C102.999 43.2006 102.699 43.0006 102.399 42.8006C102.099 42.6006 101.699 42.5006 101.199 42.5006C100.799 42.5006 100.499 42.6006 100.199 42.7006C99.8988 42.8006 99.5988 43.0006 99.3988 43.3006C99.1988 43.5006 98.9988 43.8006 98.8988 44.2006C98.7988 44.5006 98.6988 44.9006 98.6988 45.3006C98.6988 45.7006 98.7988 46.1006 98.8988 46.4006C98.9988 46.7006 99.1988 47.1006 99.4988 47.3006C99.6988 47.6006 99.9988 47.8006 100.299 47.9006C100.599 48.0006 100.899 48.1006 101.299 48.1006C101.499 48.1006 101.699 48.1006 101.999 48.0006C102.199 47.9006 102.399 47.9006 102.599 47.7006C102.799 47.5006 102.899 47.5006 103.099 47.3006C103.199 47.2006 103.299 47.0006 103.399 46.8006L104.299 47.1006C104.199 47.4006 104.099 47.6006 103.899 47.8006C103.699 48.0006 103.499 48.2006 103.199 48.3006C102.899 48.5006 102.699 48.6006 102.399 48.7006C102.099 48.8006 101.799 48.8006 101.399 48.8006C100.899 48.8006 100.399 48.7006 99.9988 48.5006C99.5988 48.3006 99.1988 48.0006 98.8988 47.7006C98.5988 47.4006 98.2988 47.0006 98.1988 46.5006C97.8988 46.2006 97.7988 45.8006 97.7988 45.2006Z" fill="#0A2553"/>
<path d="M105.199 45.2006C105.199 44.7006 105.299 44.2006 105.499 43.8006C105.699 43.4006 105.899 43.0006 106.199 42.7006C106.499 42.4006 106.899 42.1006 107.299 41.9006C107.699 41.7006 108.199 41.6006 108.699 41.6006C109.399 41.6006 109.899 41.8006 110.399 42.1006C110.899 42.4006 111.299 42.8006 111.499 43.3006L110.599 43.6006C110.399 43.2006 110.099 43.0006 109.799 42.8006C109.499 42.6006 109.099 42.5006 108.599 42.5006C108.199 42.5006 107.899 42.6006 107.599 42.7006C107.299 42.8006 106.999 43.0006 106.799 43.3006C106.599 43.6006 106.399 43.8006 106.299 44.2006C106.199 44.5006 106.099 44.9006 106.099 45.3006C106.099 45.7006 106.199 46.1006 106.299 46.4006C106.399 46.7006 106.599 47.1006 106.899 47.3006C107.099 47.6006 107.399 47.8006 107.699 47.9006C107.999 48.0006 108.299 48.1006 108.699 48.1006C108.899 48.1006 109.099 48.1006 109.399 48.0006C109.599 47.9006 109.799 47.9006 109.999 47.7006C110.199 47.6006 110.299 47.5006 110.499 47.3006C110.599 47.2006 110.699 47.0006 110.799 46.8006L111.699 47.1006C111.599 47.4006 111.499 47.6006 111.299 47.8006C111.099 48.0006 110.899 48.2006 110.599 48.3006C110.299 48.5006 110.099 48.6006 109.799 48.7006C109.499 48.8006 109.199 48.8006 108.799 48.8006C108.299 48.8006 107.799 48.7006 107.399 48.5006C106.999 48.3006 106.599 48.0006 106.299 47.7006C105.999 47.4006 105.699 47.0006 105.599 46.5006C105.299 46.2006 105.199 45.8006 105.199 45.2006Z" fill="#0A2553"/>
<path d="M115.198 48.9002C114.498 48.9002 113.898 48.6002 113.498 48.1002C113.098 47.6002 112.898 46.8002 112.898 45.8002V41.7002H113.798V45.6002C113.798 47.2002 114.298 48.0002 115.398 48.0002C115.698 48.0002 115.898 48.0002 116.198 47.9002C116.498 47.8002 116.698 47.7002 116.898 47.5002C117.098 47.3002 117.298 47.1002 117.498 46.9002C117.698 46.7002 117.798 46.4002 117.898 46.1002V41.7002H118.798V47.5002C118.798 47.7002 118.898 47.9002 119.098 47.9002V48.7002C118.898 48.7002 118.798 48.7002 118.698 48.7002C118.498 48.7002 118.298 48.6002 118.198 48.5002C118.098 48.4002 117.998 48.2002 117.998 48.0002V47.0002C117.698 47.5002 117.298 48.0002 116.798 48.3002C116.398 48.8002 115.798 48.9002 115.198 48.9002Z" fill="#0A2553"/>
<path d="M124.498 42.6008C123.898 42.6008 123.298 42.8008 122.898 43.1008C122.398 43.4008 122.098 43.9008 121.898 44.4008V48.8008H120.998V41.8008H121.898V43.5008C122.098 43.0008 122.498 42.6008 122.898 42.3008C123.298 42.0008 123.698 41.8008 124.198 41.8008C124.298 41.8008 124.398 41.8008 124.398 41.8008C124.498 41.8008 124.498 41.8008 124.598 41.8008V42.6008H124.498Z" fill="#0A2553"/>
<path d="M127.498 48.9006C127.098 48.9006 126.798 48.8006 126.498 48.7006C126.198 48.6006 125.998 48.4006 125.698 48.2006C125.498 48.0006 125.298 47.8006 125.198 47.5006C125.098 47.2006 124.998 47.0006 124.998 46.7006C124.998 46.4006 125.098 46.1006 125.198 45.8006C125.298 45.5006 125.498 45.3006 125.798 45.1006C126.098 44.9006 126.398 44.8006 126.698 44.7006C127.098 44.6006 127.498 44.5006 127.898 44.5006C128.198 44.5006 128.598 44.5006 128.998 44.6006C129.398 44.7006 129.698 44.8006 129.998 44.9006V44.3006C129.998 43.7006 129.798 43.2006 129.498 42.8006C129.098 42.4006 128.698 42.3006 128.098 42.3006C127.698 42.3006 127.298 42.4006 126.998 42.5006C126.598 42.6006 126.198 42.8006 125.898 43.1006L125.598 42.5006C126.098 42.2006 126.498 42.0006 126.898 41.8006C127.298 41.6006 127.798 41.6006 128.198 41.6006C129.098 41.6006 129.698 41.8006 130.198 42.3006C130.698 42.8006 130.998 43.5006 130.998 44.3006V47.5006C130.998 47.7006 131.098 47.9006 131.298 47.9006V48.7006C131.198 48.7006 131.198 48.7006 131.098 48.7006C130.998 48.7006 130.998 48.7006 130.898 48.7006C130.698 48.7006 130.598 48.6006 130.398 48.5006C130.298 48.4006 130.198 48.2006 130.198 48.0006V47.4006C129.898 47.8006 129.498 48.1006 128.998 48.4006C128.498 48.7006 127.998 48.9006 127.498 48.9006ZM127.698 48.2006C128.098 48.2006 128.498 48.1006 128.898 47.9006C129.298 47.7006 129.598 47.5006 129.798 47.2006C129.898 47.1006 129.898 47.0006 129.998 46.9006C130.098 46.8006 130.098 46.7006 130.098 46.6006V45.5006C129.798 45.4006 129.498 45.3006 129.098 45.2006C128.798 45.1006 128.398 45.1006 128.098 45.1006C127.398 45.1006 126.898 45.2006 126.498 45.5006C126.098 45.8006 125.898 46.1006 125.898 46.6006C125.898 46.8006 125.898 47.0006 125.998 47.2006C126.098 47.4006 126.198 47.5006 126.298 47.7006C126.398 47.8006 126.598 48.0006 126.798 48.0006C126.998 48.0006 127.398 48.2006 127.698 48.2006Z" fill="#0A2553"/>
<path d="M136.299 48.4004C136.199 48.4004 136.199 48.5004 136.099 48.5004C135.999 48.5004 135.899 48.6004 135.699 48.6004C135.599 48.6004 135.399 48.7004 135.199 48.7004C134.999 48.7004 134.899 48.8004 134.699 48.8004C134.499 48.8004 134.299 48.8004 134.099 48.7004C133.899 48.6004 133.799 48.6004 133.599 48.5004C133.499 48.4004 133.399 48.2004 133.299 48.1004C133.199 47.9004 133.199 47.7004 133.199 47.5004V42.5004H132.199V41.8004H133.199V39.4004H134.099V41.8004H135.699V42.5004H134.099V47.3004C134.099 47.6004 134.199 47.7004 134.399 47.9004C134.599 48.1004 134.799 48.1004 134.999 48.1004C135.299 48.1004 135.499 48.1004 135.699 48.0004C135.899 47.9004 135.999 47.9004 136.099 47.8004L136.299 48.4004Z" fill="#0A2553"/>
<path d="M140.398 48.9006C139.898 48.9006 139.398 48.8006 138.998 48.6006C138.598 48.4006 138.198 48.1006 137.898 47.8006C137.598 47.5006 137.298 47.1006 137.198 46.6006C136.998 46.2006 136.898 45.7006 136.898 45.2006C136.898 44.7006 136.998 44.2006 137.198 43.8006C137.398 43.4006 137.598 43.0006 137.898 42.7006C138.198 42.4006 138.598 42.1006 138.998 41.9006C139.398 41.7006 139.898 41.6006 140.398 41.6006C140.898 41.6006 141.398 41.7006 141.798 41.9006C142.198 42.1006 142.598 42.4006 142.898 42.7006C143.198 43.0006 143.398 43.4006 143.598 43.8006C143.798 44.2006 143.898 44.7006 143.898 45.2006C143.898 45.3006 143.898 45.3006 143.898 45.4006C143.898 45.5006 143.898 45.5006 143.898 45.5006H137.898C137.898 45.9006 137.998 46.2006 138.198 46.5006C138.298 46.8006 138.498 47.1006 138.798 47.3006C138.998 47.5006 139.298 47.7006 139.598 47.8006C139.898 47.9006 140.198 48.0006 140.598 48.0006C140.798 48.0006 141.098 48.0006 141.298 47.9006C141.498 47.8006 141.698 47.8006 141.898 47.6006C142.098 47.5006 142.298 47.4006 142.398 47.2006C142.498 47.0006 142.698 46.9006 142.698 46.7006L143.498 46.9006C143.398 47.2006 143.198 47.4006 142.998 47.6006C142.798 47.8006 142.598 48.0006 142.298 48.1006C141.998 48.3006 141.798 48.4006 141.398 48.5006C141.098 48.9006 140.698 48.9006 140.398 48.9006ZM142.998 44.9006C142.998 44.5006 142.898 44.2006 142.698 43.9006C142.598 43.6006 142.398 43.3006 142.098 43.1006C141.798 42.9006 141.598 42.7006 141.298 42.6006C140.998 42.5006 140.698 42.4006 140.298 42.4006C139.998 42.4006 139.598 42.5006 139.298 42.6006C138.998 42.7006 138.698 42.9006 138.498 43.1006C138.298 43.3006 138.098 43.6006 137.898 43.9006C137.798 44.2006 137.698 44.6006 137.698 44.9006H142.998Z" fill="#0A2553"/>
<path d="M148.799 50.5004V38.4004H149.599V50.6004H148.799V50.5004Z" fill="#0A2553"/>
<path d="M158.6 42.6008C158 42.6008 157.4 42.8008 157 43.1008C156.5 43.4008 156.2 43.9008 156 44.4008V48.8008H155.1V41.8008H156V43.5008C156.2 43.0008 156.6 42.6008 157 42.3008C157.4 42.0008 157.8 41.8008 158.3 41.8008C158.4 41.8008 158.5 41.8008 158.5 41.8008C158.6 41.8008 158.6 41.8008 158.7 41.8008V42.6008H158.6Z" fill="#0A2553"/>
<path d="M162.898 48.9006C162.398 48.9006 161.898 48.8006 161.498 48.6006C161.098 48.4006 160.698 48.1006 160.398 47.8006C160.098 47.5006 159.798 47.1006 159.698 46.6006C159.498 46.2006 159.398 45.7006 159.398 45.2006C159.398 44.7006 159.498 44.2006 159.698 43.8006C159.898 43.4006 160.098 43.0006 160.398 42.7006C160.698 42.4006 161.098 42.1006 161.498 41.9006C161.898 41.7006 162.398 41.6006 162.898 41.6006C163.398 41.6006 163.898 41.7006 164.298 41.9006C164.698 42.1006 165.098 42.4006 165.398 42.7006C165.698 43.0006 165.898 43.4006 166.098 43.8006C166.298 44.2006 166.398 44.7006 166.398 45.2006C166.398 45.3006 166.398 45.3006 166.398 45.4006C166.398 45.5006 166.398 45.5006 166.398 45.5006H160.398C160.398 45.9006 160.498 46.2006 160.698 46.5006C160.798 46.8006 160.998 47.1006 161.298 47.3006C161.498 47.5006 161.798 47.7006 162.098 47.8006C162.398 47.9006 162.698 48.0006 163.098 48.0006C163.298 48.0006 163.598 48.0006 163.798 47.9006C163.998 47.8006 164.198 47.8006 164.398 47.6006C164.598 47.5006 164.798 47.4006 164.898 47.2006C164.998 47.0006 165.198 46.9006 165.198 46.7006L165.998 46.9006C165.898 47.2006 165.698 47.4006 165.498 47.6006C165.298 47.8006 165.098 48.0006 164.798 48.1006C164.498 48.3006 164.298 48.4006 163.898 48.5006C163.498 48.9006 163.198 48.9006 162.898 48.9006ZM165.498 44.9006C165.498 44.5006 165.398 44.2006 165.198 43.9006C165.098 43.6006 164.898 43.3006 164.598 43.1006C164.298 42.9006 164.098 42.7006 163.798 42.6006C163.498 42.5006 163.198 42.4006 162.798 42.4006C162.498 42.4006 162.098 42.5006 161.798 42.6006C161.498 42.7006 161.198 42.9006 160.998 43.1006C160.798 43.3006 160.598 43.6006 160.398 43.9006C160.298 44.2006 160.198 44.6006 160.198 44.9006H165.498Z" fill="#0A2553"/>
<path d="M167.699 39H168.599V47.2C168.599 47.5 168.699 47.7 168.799 47.8C168.899 47.9 169.099 48 169.399 48C169.499 48 169.599 48 169.699 48C169.799 48 169.999 47.9 170.099 47.9L170.299 48.6C170.099 48.7 169.899 48.7 169.699 48.8C169.499 48.9 169.199 48.9 169.099 48.9C168.699 48.9 168.299 48.8 168.099 48.5C167.899 48.3 167.699 47.9 167.699 47.5V39Z" fill="#0A2553"/>
<path d="M171.199 40.3V39H172.099V40.3H171.199ZM171.199 48.8V41.8H172.099V48.8H171.199Z" fill="#0A2553"/>
<path d="M175.998 48.9006C175.598 48.9006 175.298 48.8006 174.998 48.7006C174.698 48.6006 174.498 48.4006 174.198 48.2006C173.998 48.0006 173.798 47.8006 173.698 47.5006C173.598 47.2006 173.498 47.0006 173.498 46.7006C173.498 46.4006 173.598 46.1006 173.698 45.8006C173.798 45.5006 173.998 45.3006 174.298 45.1006C174.598 44.9006 174.898 44.8006 175.198 44.7006C175.598 44.6006 175.998 44.5006 176.398 44.5006C176.698 44.5006 177.098 44.5006 177.498 44.6006C177.898 44.7006 178.198 44.8006 178.498 44.9006V44.3006C178.498 43.7006 178.298 43.2006 177.998 42.8006C177.598 42.4006 177.198 42.3006 176.598 42.3006C176.198 42.3006 175.798 42.4006 175.498 42.5006C175.098 42.6006 174.698 42.8006 174.398 43.1006L174.098 42.5006C174.598 42.2006 174.998 42.0006 175.398 41.8006C175.798 41.6006 176.298 41.6006 176.698 41.6006C177.598 41.6006 178.198 41.8006 178.698 42.3006C179.198 42.8006 179.498 43.5006 179.498 44.3006V47.5006C179.498 47.7006 179.598 47.9006 179.798 47.9006V48.7006C179.698 48.7006 179.698 48.7006 179.598 48.7006C179.498 48.7006 179.498 48.7006 179.398 48.7006C179.198 48.7006 179.098 48.6006 178.898 48.5006C178.798 48.4006 178.698 48.2006 178.698 48.0006V47.4006C178.398 47.8006 177.998 48.1006 177.498 48.4006C176.998 48.7006 176.498 48.9006 175.998 48.9006ZM176.198 48.2006C176.598 48.2006 176.998 48.1006 177.398 47.9006C177.798 47.7006 178.098 47.5006 178.298 47.2006C178.398 47.1006 178.398 47.0006 178.498 46.9006C178.598 46.8006 178.598 46.7006 178.598 46.6006V45.5006C178.298 45.4006 177.998 45.3006 177.598 45.2006C177.298 45.1006 176.898 45.1006 176.598 45.1006C175.898 45.1006 175.398 45.2006 174.998 45.5006C174.598 45.8006 174.398 46.1006 174.398 46.6006C174.398 46.8006 174.398 47.0006 174.498 47.2006C174.598 47.4006 174.698 47.5006 174.798 47.7006C174.898 47.8006 175.098 48.0006 175.298 48.0006C175.498 48.0006 175.898 48.2006 176.198 48.2006Z" fill="#0A2553"/>
<path d="M184.898 48.9C184.398 48.9 183.798 48.8 183.398 48.5C182.998 48.2 182.598 47.9 182.298 47.4V48.8H181.498V39H182.398V43.3C182.698 42.8 183.098 42.4 183.498 42.2C183.898 41.9 184.498 41.8 184.998 41.8C185.498 41.8 185.898 41.9 186.298 42.1C186.698 42.3 186.998 42.6 187.298 42.9C187.598 43.2 187.798 43.6 187.898 44.1C187.998 44.6 188.098 45 188.098 45.4C188.098 45.9 187.998 46.4 187.798 46.8C187.598 47.2 187.398 47.6 187.098 47.9C186.798 48.2 186.398 48.5 185.998 48.7C185.798 48.8 185.398 48.9 184.898 48.9ZM184.698 48.1C185.098 48.1 185.398 48 185.798 47.9C186.098 47.7 186.398 47.5 186.598 47.3C186.798 47 186.998 46.7 187.098 46.4C187.198 46.1 187.298 45.7 187.298 45.4C187.298 45 187.198 44.7 187.098 44.3C186.998 44 186.798 43.7 186.598 43.4C186.398 43.1 186.098 42.9 185.798 42.8C185.498 42.7 185.198 42.6 184.798 42.6C184.498 42.6 184.298 42.6 183.998 42.7C183.798 42.8 183.498 42.9 183.298 43.1C183.098 43.3 182.898 43.4 182.698 43.7C182.498 43.9 182.398 44.1 182.298 44.4V46.6C182.298 46.8 182.398 47.1 182.598 47.3C182.798 47.5 182.898 47.7 183.198 47.8C183.398 48 183.698 48.1 183.898 48.2C184.198 48.1 184.498 48.1 184.698 48.1Z" fill="#0A2553"/>
<path d="M189.799 39H190.699V47.2C190.699 47.5 190.799 47.7 190.899 47.8C190.999 47.9 191.199 48 191.499 48C191.599 48 191.699 48 191.799 48C191.899 48 192.099 47.9 192.199 47.9L192.399 48.6C192.199 48.7 191.999 48.7 191.799 48.8C191.599 48.9 191.299 48.9 191.199 48.9C190.799 48.9 190.399 48.8 190.199 48.5C189.999 48.3 189.799 47.9 189.799 47.5V39Z" fill="#0A2553"/>
<path d="M196.398 48.9006C195.898 48.9006 195.398 48.8006 194.998 48.6006C194.598 48.4006 194.198 48.1006 193.898 47.8006C193.598 47.5006 193.298 47.1006 193.198 46.6006C192.998 46.2006 192.898 45.7006 192.898 45.2006C192.898 44.7006 192.998 44.2006 193.198 43.8006C193.398 43.4006 193.598 43.0006 193.898 42.7006C194.198 42.4006 194.598 42.1006 194.998 41.9006C195.398 41.7006 195.898 41.6006 196.398 41.6006C196.898 41.6006 197.398 41.7006 197.798 41.9006C198.198 42.1006 198.598 42.4006 198.898 42.7006C199.198 43.0006 199.398 43.4006 199.598 43.8006C199.798 44.2006 199.898 44.7006 199.898 45.2006C199.898 45.3006 199.898 45.3006 199.898 45.4006C199.898 45.5006 199.898 45.5006 199.898 45.5006H193.898C193.898 45.9006 193.998 46.2006 194.198 46.5006C194.298 46.8006 194.498 47.1006 194.798 47.3006C194.998 47.5006 195.298 47.7006 195.598 47.8006C195.898 47.9006 196.198 48.0006 196.598 48.0006C196.798 48.0006 197.098 48.0006 197.298 47.9006C197.498 47.8006 197.698 47.8006 197.898 47.6006C198.098 47.5006 198.298 47.4006 198.398 47.2006C198.498 47.0006 198.698 46.9006 198.698 46.7006L199.498 46.9006C199.398 47.2006 199.198 47.4006 198.998 47.6006C198.798 47.8006 198.598 48.0006 198.298 48.1006C197.998 48.3006 197.798 48.4006 197.398 48.5006C196.998 48.9006 196.698 48.9006 196.398 48.9006ZM198.898 44.9006C198.898 44.5006 198.798 44.2006 198.598 43.9006C198.498 43.6006 198.298 43.3006 197.998 43.1006C197.698 42.9006 197.498 42.7006 197.198 42.6006C196.898 42.5006 196.598 42.4006 196.198 42.4006C195.898 42.4006 195.498 42.5006 195.198 42.6006C194.898 42.7006 194.598 42.9006 194.398 43.1006C194.198 43.3006 193.998 43.6006 193.798 43.9006C193.698 44.2006 193.598 44.6006 193.598 44.9006H198.898Z" fill="#0A2553"/>
<path d="M12.1992 29.9006C10.3992 29.9006 8.69922 29.6006 7.29922 29.0006C5.89922 28.4006 4.59922 27.6006 3.69922 26.7006C2.69922 25.7006 1.99922 24.6006 1.49922 23.3006C0.999219 22.0006 0.699219 20.7006 0.699219 19.3006C0.699219 17.8006 0.899219 16.3006 1.39922 15.0006C1.89922 13.6006 2.59922 12.4006 3.59922 11.4006C4.59922 10.4006 5.79922 9.60059 7.19922 9.00059C8.59922 8.40059 10.2992 8.10059 12.1992 8.10059C14.0992 8.10059 15.6992 8.40059 17.1992 9.00059C18.5992 9.60059 19.8992 10.4006 20.7992 11.4006C21.7992 12.4006 22.4992 13.6006 22.9992 14.9006C23.4992 16.2006 23.6992 17.6006 23.6992 19.1006C23.6992 19.5006 23.6992 19.9006 23.5992 20.3006C23.5992 20.7006 23.4992 21.1006 23.4992 21.4006H8.79922C8.89922 22.5006 9.29922 23.3006 9.99922 23.8006C10.6992 24.3006 11.5992 24.5006 12.3992 24.5006C13.1992 24.5006 13.9992 24.3006 14.6992 23.9006C15.3992 23.5006 15.8992 23.0006 16.1992 22.3006L22.6992 24.1006C21.7992 25.8006 20.4992 27.2006 18.7992 28.2006C16.9992 29.4006 14.7992 29.9006 12.1992 29.9006ZM15.5992 16.7006C15.4992 15.7006 15.0992 14.9006 14.4992 14.3006C13.8992 13.7006 13.0992 13.4006 12.0992 13.4006C11.0992 13.4006 10.2992 13.7006 9.69922 14.3006C9.09922 14.9006 8.69922 15.7006 8.59922 16.7006H15.5992Z" fill="#1B74E0"/>
<path d="M47.4984 29.5H39.8984V17.6C39.8984 16.6 39.6984 15.8 39.1984 15.3C38.6984 14.8 38.1984 14.6 37.5984 14.6C36.9984 14.6 36.2984 14.9 35.5984 15.4C34.8984 16 34.2984 16.7 33.9984 17.6V29.4H26.3984V8.4H33.2984V11.5C33.9984 10.4 35.0984 9.5 36.3984 8.9C37.6984 8.3 39.2984 8 41.1984 8C42.5984 8 43.7984 8.3 44.5984 8.8C45.3984 9.3 46.0984 10 46.4984 10.7C46.8984 11.5 47.1984 12.3 47.3984 13.2C47.4984 14.1 47.5984 14.9 47.5984 15.6V29.5H47.4984Z" fill="#1B74E0"/>
<path d="M66 28.2998C64.9 28.7998 63.8 29.0998 62.6 29.3998C61.4 29.6998 60.2 29.8998 59 29.8998C58.1 29.8998 57.3 29.7998 56.6 29.5998C55.8 29.3998 55.1 28.9998 54.6 28.5998C54 28.0998 53.6 27.4998 53.2 26.6998C52.9 25.8998 52.7 24.9998 52.7 23.7998V14.0998H50V8.39981H52.6V1.7998H60.2V8.39981H64.3V14.0998H60.2V21.0998C60.2 21.7998 60.3 22.2998 60.6 22.5998C60.9 22.8998 61.3 22.9998 61.8 22.9998C62.2 22.9998 62.6 22.8998 63.1 22.7998C63.6 22.6998 64.1 22.4998 64.5 22.2998L66 28.2998Z" fill="#1B74E0"/>
<path d="M68.0996 29.5004V8.40039H75.6996V29.5004H68.0996Z" fill="#1B74E0"/>
<path d="M94.3984 28.2998C93.2984 28.7998 92.1984 29.0998 90.9984 29.3998C89.7984 29.6998 88.5984 29.8998 87.3984 29.8998C86.4984 29.8998 85.6984 29.7998 84.9984 29.5998C84.1984 29.3998 83.4984 28.9998 82.9984 28.5998C82.3984 28.0998 81.9984 27.4998 81.5984 26.6998C81.1984 25.8998 80.9984 24.9998 80.9984 23.7998V14.0998H78.3984V8.39981H80.9984V1.7998H88.5984V8.39981H92.6984V14.0998H88.5984V21.0998C88.5984 21.7998 88.6984 22.2998 88.9984 22.5998C89.2984 22.8998 89.6984 22.9998 90.1984 22.9998C90.5984 22.9998 90.9984 22.8998 91.4984 22.7998C91.9984 22.6998 92.4984 22.4998 92.8984 22.2998L94.3984 28.2998Z" fill="#1B74E0"/>
<path d="M96.3984 0.200195H103.998V21.1002C103.998 22.7002 104.698 23.5002 105.998 23.5002C106.298 23.5002 106.698 23.4002 106.998 23.3002C107.398 23.2002 107.698 23.0002 107.998 22.9002L108.998 28.5002C108.098 28.9002 107.098 29.3002 105.898 29.5002C104.798 29.7002 103.698 29.9002 102.698 29.9002C100.698 29.9002 99.0984 29.4002 97.9984 28.3002C96.8984 27.3002 96.3984 25.7002 96.3984 23.8002V0.200195Z" fill="#1B74E0"/>
<path d="M121.199 29.9006C119.399 29.9006 117.699 29.6006 116.299 29.0006C114.899 28.4006 113.599 27.6006 112.699 26.7006C111.699 25.7006 110.999 24.6006 110.499 23.3006C109.999 22.0006 109.699 20.7006 109.699 19.3006C109.699 17.8006 109.899 16.3006 110.399 15.0006C110.899 13.6006 111.599 12.4006 112.599 11.4006C113.599 10.4006 114.799 9.60059 116.199 9.00059C117.599 8.40059 119.299 8.10059 121.199 8.10059C123.099 8.10059 124.699 8.40059 126.199 9.00059C127.699 9.60059 128.899 10.4006 129.799 11.4006C130.799 12.4006 131.499 13.6006 131.999 14.9006C132.499 16.2006 132.699 17.6006 132.699 19.1006C132.699 19.5006 132.699 19.9006 132.599 20.3006C132.599 20.7006 132.499 21.1006 132.499 21.4006H117.699C117.799 22.5006 118.199 23.3006 118.899 23.8006C119.599 24.3006 120.499 24.5006 121.299 24.5006C122.099 24.5006 122.899 24.3006 123.599 23.9006C124.299 23.5006 124.799 23.0006 125.099 22.3006L131.599 24.1006C130.699 25.8006 129.399 27.2006 127.599 28.2006C125.899 29.4006 123.799 29.9006 121.199 29.9006ZM124.499 16.7006C124.399 15.7006 123.999 14.9006 123.399 14.3006C122.799 13.7006 121.999 13.4006 120.999 13.4006C119.999 13.4006 119.199 13.7006 118.599 14.3006C117.999 14.9006 117.599 15.7006 117.499 16.7006H124.499Z" fill="#1B74E0"/>
<path d="M144 29.9002C142.6 29.9002 141.2 29.6002 140 29.1002C138.8 28.6002 137.7 27.8002 136.9 26.8002C136 25.8002 135.3 24.7002 134.8 23.3002C134.3 22.0002 134.1 20.5002 134.1 18.9002C134.1 17.3002 134.3 15.9002 134.8 14.6002C135.3 13.3002 135.9 12.1002 136.7 11.1002C137.5 10.1002 138.5 9.4002 139.6 8.80019C140.7 8.30019 142 8.0002 143.3 8.0002C144.6 8.0002 145.9 8.30019 147 8.9002C148.1 9.5002 149 10.4002 149.6 11.5002V0.200195H157.2V21.1002C157.2 21.8002 157.3 22.3002 157.5 22.6002C157.7 22.9002 158.1 23.0002 158.6 23.1002V29.5002C157.3 29.8002 156.2 29.9002 155.4 29.9002C152.8 29.9002 151.3 28.9002 150.9 27.0002L150.7 26.2002C150 27.5002 149 28.4002 147.8 29.0002C146.7 29.6002 145.4 29.9002 144 29.9002ZM146.1 23.5002C147.5 23.5002 148.7 22.8002 149.7 21.3002V17.5002C149.3 16.6002 148.8 15.8002 148.1 15.2002C147.4 14.6002 146.6 14.3002 145.8 14.3002C145.2 14.3002 144.7 14.4002 144.3 14.7002C143.8 14.9002 143.4 15.3002 143.1 15.7002C142.8 16.1002 142.5 16.6002 142.3 17.2002C142.1 17.8002 142 18.4002 142 19.0002C142 20.3002 142.4 21.4002 143.1 22.2002C143.8 23.1002 144.9 23.5002 146.1 23.5002Z" fill="#1B74E0"/>
<path d="M176.5 28.2998C175.4 28.7998 174.3 29.0998 173.1 29.3998C171.9 29.6998 170.7 29.8998 169.5 29.8998C168.6 29.8998 167.8 29.7998 167.1 29.5998C166.3 29.3998 165.6 28.9998 165.1 28.5998C164.5 28.0998 164.1 27.4998 163.7 26.6998C163.4 25.8998 163.2 24.9998 163.2 23.7998V14.0998H160.6V8.39981H163.2V1.7998H170.8V8.39981H174.9V14.0998H170.8V21.0998C170.8 21.7998 170.9 22.2998 171.2 22.5998C171.5 22.8998 171.9 22.9998 172.4 22.9998C172.8 22.9998 173.2 22.8998 173.7 22.7998C174.2 22.6998 174.7 22.4998 175.1 22.2998L176.5 28.2998Z" fill="#0A2553"/>
<path d="M75.6996 0.200195H68.0996V6.6002H75.6996V0.200195Z" fill="#0A2553"/>
<path d="M188.799 29.9C186.899 29.9 185.199 29.6 183.799 29C182.399 28.4 181.199 27.6 180.199 26.6C179.199 25.6 178.499 24.4 177.999 23.1C177.499 21.8 177.299 20.4 177.299 19C177.299 17.6 177.499 16.2 177.999 14.8C178.499 13.5 179.199 12.3 180.199 11.3C181.199 10.3 182.399 9.5 183.799 8.9C185.199 8.3 186.899 8 188.799 8C190.699 8 192.299 8.3 193.799 8.9C195.199 9.5 196.499 10.3 197.399 11.3C198.399 12.3 199.099 13.5 199.599 14.8C200.099 16.1 200.299 17.5 200.299 19C200.299 20.4 200.099 21.8 199.599 23.1C199.099 24.4 198.399 25.6 197.399 26.6C196.399 27.6 195.199 28.4 193.799 29C192.299 29.6 190.599 29.9 188.799 29.9ZM184.999 19C184.999 20.4 185.299 21.5 185.999 22.3C186.699 23.1 187.599 23.5 188.699 23.5C189.799 23.5 190.699 23.1 191.399 22.3C192.099 21.5 192.399 20.4 192.399 19C192.399 17.6 192.099 16.5 191.399 15.7C190.699 14.9 189.799 14.5 188.699 14.5C187.599 14.5 186.699 14.9 185.999 15.7C185.399 16.4 184.999 17.5 184.999 19Z" fill="#0A2553"/>
</g>
<defs>
<clipPath id="clip0_131_2334">
<rect width="201" height="52" fill="white"/>
</clipPath>
</defs>
</svg>
